<?xml version="1.0" standalone="no"?>
<!DOCTYPE svg PUBLIC "-//W3C//DTD SVG 20010904//EN"
 "http://www.w3.org/TR/2001/REC-SVG-20010904/DTD/svg10.dtd">
<svg version="1.0" xmlns="http://www.w3.org/2000/svg"
 width="1040.000000pt" height="1173.000000pt" viewBox="0 0 1040.000000 1173.000000"
 preserveAspectRatio="xMidYMid meet">

<g transform="translate(0.000000,1173.000000) scale(0.100000,-0.100000)"
fill="currentColor" stroke="none">
<path d="M3467 10109 c-181 -24 -301 -62 -477 -150 -322 -161 -588 -471 -699
-814 -68 -211 -66 -180 -66 -1320 0 -1141 -1 -1127 66 -1330 72 -217 174 -381
344 -550 218 -218 467 -351 748 -399 l37 -7 0 -586 0 -585 38 28 c20 15 132
103 247 194 116 92 372 292 570 445 198 153 419 325 492 381 l132 103 1023 4
c995 3 1025 3 1113 24 296 68 508 185 716 392 173 174 286 358 357 581 64 202
63 185 60 1345 l-4 1050 -26 105 c-32 128 -61 207 -121 325 -134 266 -373 501
-642 631 -128 62 -204 88 -335 117 -94 21 -109 21 -1800 23 -949 1 -1735 -2
-1773 -7z m3453 -253 c240 -37 460 -142 630 -302 164 -155 271 -340 338 -583
l27 -96 0 -1045 c0 -845 -3 -1056 -14 -1105 -56 -250 -162 -447 -328 -611
-168 -166 -355 -266 -603 -321 -67 -15 -193 -17 -1117 -22 l-1043 -6 -277
-215 c-153 -118 -347 -269 -433 -336 -85 -66 -216 -166 -290 -223 l-135 -102
-3 438 -2 439 -118 12 c-300 30 -565 159 -761 368 -159 170 -254 360 -299 599
-15 81 -17 189 -17 1090 0 939 1 1005 19 1085 55 254 158 441 338 616 176 172
395 280 643 318 136 21 3307 22 3445 2z"/>
<path d="M5385 9415 c-27 -7 -61 -18 -74 -23 -17 -6 -39 -4 -70 5 -25 8 -95
17 -156 20 -136 6 -230 -12 -335 -64 -71 -36 -80 -38 -180 -39 -162 -3 -292
-54 -375 -149 -25 -29 -42 -36 -105 -49 -174 -36 -375 -171 -476 -320 -12 -18
-40 -44 -62 -58 -54 -36 -109 -106 -137 -173 -16 -40 -38 -70 -77 -105 -80
-72 -121 -153 -126 -255 -4 -67 -1 -90 17 -131 l22 -50 -22 -49 c-43 -97 -25
-232 41 -308 20 -23 42 -59 49 -79 36 -110 162 -239 299 -305 117 -56 237 -76
417 -70 83 3 159 7 170 9 18 3 21 -5 27 -66 8 -82 48 -150 114 -191 23 -15 48
-40 54 -56 34 -81 161 -167 310 -209 171 -47 331 -36 494 35 l79 34 31 -23
c17 -13 49 -30 71 -38 34 -13 45 -26 72 -79 18 -35 66 -102 107 -149 111 -126
188 -228 235 -313 23 -41 48 -78 57 -81 40 -15 254 3 297 25 27 15 21 49 -33
168 -27 61 -50 117 -50 125 0 11 32 15 153 18 120 4 166 10 222 28 210 67 383
207 489 393 56 99 82 178 97 298 12 90 12 90 49 109 20 10 60 44 88 75 164
179 188 475 55 684 -19 31 -47 68 -61 83 -21 23 -26 39 -29 95 -9 177 -87 318
-287 519 -91 91 -142 133 -204 169 -78 45 -86 53 -113 110 -58 123 -175 217
-312 250 -44 11 -86 29 -109 47 -75 59 -122 73 -248 74 -99 1 -120 5 -152 24
-82 48 -220 63 -323 35z m242 -90 l34 -14 -40 -36 c-51 -47 -79 -109 -91 -203
-6 -48 -19 -93 -35 -122 -67 -120 -145 -285 -145 -306 0 -12 13 -59 30 -103
16 -44 32 -104 36 -133 7 -59 18 -78 44 -78 38 0 41 96 5 207 -14 43 -25 86
-25 95 0 34 42 128 90 201 49 75 80 163 80 229 0 122 110 218 250 218 76 0
146 -28 207 -84 34 -30 51 -37 108 -45 123 -18 214 -80 269 -185 24 -44 35
-106 20 -106 -3 0 -28 20 -56 44 -78 71 -140 91 -285 91 -121 0 -122 0 -127
25 -14 68 -79 126 -111 100 -22 -18 -19 -41 10 -80 41 -56 34 -84 -40 -161
-79 -82 -123 -169 -138 -274 -11 -80 -3 -105 34 -105 24 0 26 5 38 79 12 77
56 172 104 227 20 22 64 56 99 75 59 32 69 34 153 34 79 0 96 -4 143 -28 91
-48 182 -152 182 -209 0 -16 8 -31 19 -37 23 -13 47 -63 62 -130 13 -61 30
-72 69 -42 16 11 40 21 53 21 30 0 81 -38 119 -89 50 -69 97 -47 63 30 -32 70
-131 138 -201 139 -38 0 -41 4 -93 104 -45 86 -48 103 -27 131 12 17 16 17 47
5 84 -35 261 -205 347 -333 65 -95 87 -141 106 -214 30 -117 17 -158 -61 -184
-43 -14 -57 -39 -37 -67 20 -29 41 -28 96 7 l47 30 35 -39 c42 -47 68 -96 90
-169 18 -61 21 -178 6 -231 -9 -35 -10 -35 -71 -38 -60 -2 -63 -1 -100 38
l-38 40 30 57 c51 100 49 209 -4 201 -19 -3 -23 -12 -29 -61 -11 -84 -40 -131
-99 -156 -26 -12 -53 -21 -59 -21 -9 0 -88 36 -99 46 -1 1 7 31 19 66 27 77
36 170 22 222 -10 36 -9 42 15 70 50 59 67 132 38 156 -13 10 -19 10 -35 -5
-11 -10 -20 -23 -20 -29 0 -6 -11 -28 -25 -48 -23 -33 -28 -36 -63 -31 -28 4
-43 1 -56 -12 -24 -25 -16 -47 24 -67 41 -21 48 -36 49 -103 1 -110 -42 -207
-132 -292 -127 -120 -311 -212 -435 -216 -62 -2 -67 0 -68 20 -2 39 -13 55
-36 51 -15 -2 -24 -13 -30 -34 -4 -17 -14 -36 -20 -42 -25 -20 -168 -42 -272
-42 l-106 0 -14 -32 c-30 -71 -149 -149 -265 -173 -106 -23 -108 -24 -115 -40
-18 -49 33 -57 156 -26 103 26 169 62 234 125 l55 53 102 6 c98 5 134 14 186
46 19 12 49 15 132 12 90 -2 121 1 184 20 l76 22 32 -31 c17 -17 29 -33 26
-35 -59 -47 -276 -143 -465 -206 -150 -50 -263 -66 -416 -57 -127 7 -134 4
-108 -44 8 -16 3 -26 -32 -60 -58 -56 -171 -125 -266 -163 -70 -29 -87 -31
-192 -32 -125 0 -199 15 -295 60 -77 37 -151 106 -162 153 -7 31 -16 41 -58
62 -38 19 -55 36 -72 70 -27 52 -28 91 -8 178 30 125 104 231 233 329 100 76
121 89 184 113 135 50 266 62 368 35 30 -8 58 -15 62 -15 4 0 21 29 38 64 52
111 181 206 375 277 153 57 260 76 346 61 98 -17 101 -17 97 16 -2 22 -11 30
-50 43 -26 8 -51 18 -54 22 -4 3 19 37 50 74 60 72 76 107 57 126 -23 23 -65
-7 -133 -98 -37 -50 -77 -93 -90 -97 -13 -4 -63 -16 -111 -27 -48 -11 -134
-39 -189 -61 -114 -45 -117 -45 -140 25 -10 32 -18 41 -40 43 -27 3 -28 1 -28
-38 0 -22 7 -57 15 -77 8 -19 15 -36 15 -38 0 -1 -27 -23 -60 -50 -34 -26 -79
-71 -102 -101 -37 -49 -44 -54 -80 -54 -22 0 -38 3 -36 8 2 4 16 31 32 61 15
30 35 73 43 95 22 64 18 202 -12 371 -21 118 -26 170 -22 245 7 141 28 189
139 306 l90 96 -7 53 c-8 67 6 121 45 170 37 47 63 66 104 76 39 10 119 2 163
-16z m-417 -6 c73 -16 76 -20 50 -74 -14 -29 -25 -73 -28 -115 -4 -65 -6 -69
-47 -104 -38 -31 -135 -161 -147 -198 -4 -10 -9 -9 -25 5 -23 20 -44 22 -61 5
-18 -18 -15 -31 22 -79 33 -44 33 -45 39 -179 3 -88 15 -181 32 -265 32 -156
30 -236 -10 -322 -48 -106 -62 -118 -164 -138 -100 -19 -128 -16 -183 22 -67
45 -115 139 -133 256 -6 34 -9 38 -33 35 -26 -3 -27 -5 -26 -68 1 -84 15 -132
59 -204 24 -41 35 -70 35 -98 0 -45 -9 -55 -129 -152 -41 -33 -94 -86 -119
-118 -25 -33 -56 -61 -70 -65 -40 -10 -252 5 -317 22 -194 52 -326 177 -355
338 -13 70 -2 102 45 121 58 25 38 85 -24 73 -34 -7 -73 19 -96 64 -20 38 -62
41 -71 5 -7 -30 20 -90 53 -115 22 -18 23 -22 13 -67 -12 -54 -5 -118 20 -185
l17 -47 -58 -6 c-108 -13 -174 37 -200 150 -14 60 -1 119 36 162 26 31 32 66
14 78 -20 12 -49 88 -49 130 0 88 55 183 136 230 36 21 46 33 54 67 26 108 95
195 146 182 18 -4 23 2 34 38 16 55 150 188 245 244 83 49 188 83 256 83 43 0
50 3 63 29 24 45 103 108 165 132 96 36 172 44 230 25 66 -21 76 -20 95 9 28
43 131 86 251 106 55 8 165 3 235 -12z m-535 -1529 c3 -5 -1 -10 -9 -10 -9 0
-16 5 -16 10 0 6 4 10 9 10 6 0 13 -4 16 -10z m2081 -168 c34 -29 44 -57 44
-126 0 -63 1 -66 25 -66 20 0 26 7 35 42 11 38 10 80 -1 117 -3 8 11 18 38 26
l43 13 22 -41 c37 -65 68 -82 149 -82 38 0 69 -1 69 -3 0 -13 -46 -88 -71
-117 -119 -135 -364 -137 -631 -4 -38 18 -68 36 -68 40 0 4 21 20 48 35 49 29
130 89 197 148 45 39 70 44 101 18z m-3156 0 c0 -5 28 -36 62 -70 112 -111
243 -160 456 -169 112 -5 132 -8 132 -22 0 -9 -4 -21 -8 -28 -21 -32 -302 -44
-439 -18 -46 9 -111 31 -160 55 -67 33 -95 55 -157 123 -42 45 -76 85 -76 89
0 5 24 8 53 8 34 0 62 7 82 19 32 21 55 26 55 13z m2964 -361 c6 -9 -172 -56
-181 -47 -3 3 18 17 48 30 54 25 123 34 133 17z m384 -73 c-7 -19 -53 -27
-178 -34 -63 -3 -175 -14 -248 -25 -73 -11 -138 -18 -145 -16 -32 12 129 58
268 77 101 13 307 12 303 -2z m-684 -60 c-28 -93 -113 -185 -200 -218 -143
-53 -282 -49 -403 12 -90 45 -90 58 -3 58 128 0 313 49 508 134 96 42 108 44
98 14z m676 -43 c0 -22 -54 -32 -320 -60 -135 -14 -263 -28 -285 -31 l-40 -5
22 19 c35 31 255 68 503 85 109 8 120 7 120 -8z m-40 -124 c-20 -38 -108 -56
-270 -55 -153 1 -248 10 -234 24 5 4 109 18 231 30 123 12 235 25 250 29 32 9
39 1 23 -28z m-1366 -49 c22 -20 54 -46 69 -57 18 -13 28 -31 30 -49 2 -27 -2
-30 -38 -39 -22 -4 -61 -6 -87 -3 -55 6 -138 40 -138 56 0 9 107 125 119 129
2 0 22 -16 45 -37z m851 -43 c96 -24 338 -36 405 -21 50 12 59 9 44 -16 -31
-50 -237 -63 -382 -24 -92 25 -182 66 -182 83 0 7 7 8 18 4 9 -3 53 -15 97
-26z m-185 -19 c51 -36 173 -89 255 -111 54 -14 113 -21 183 -21 56 -1 102 -5
102 -9 0 -17 -85 -39 -149 -39 -126 0 -339 74 -413 145 -49 46 -32 73 22 35z
m-94 -62 c45 -43 144 -103 211 -128 29 -11 92 -27 141 -36 142 -26 136 -24
124 -36 -17 -17 -121 -22 -186 -8 -89 18 -231 94 -298 160 -32 31 -58 61 -58
68 0 22 31 12 66 -20z m-341 -30 c9 -29 29 -73 43 -97 24 -41 24 -43 4 -32
-37 20 -103 157 -84 175 13 13 21 3 37 -46z m111 -15 c19 -40 56 -86 116 -145
49 -49 83 -88 76 -88 -33 1 -98 42 -142 91 -45 50 -106 157 -106 187 0 31 30
7 56 -45z m110 14 c62 -87 201 -183 322 -222 60 -19 60 -35 -1 -35 -53 0 -161
51 -236 111 -56 45 -141 151 -141 175 0 27 26 14 56 -29z m-281 -122 c48 -72
95 -112 175 -147 36 -16 71 -32 78 -36 7 -4 24 -40 38 -80 13 -40 38 -100 55
-134 17 -33 29 -61 27 -63 -2 -1 -42 -5 -89 -9 l-85 -7 -27 48 c-39 72 -117
179 -187 258 -67 75 -150 182 -150 195 0 6 72 24 117 29 7 0 28 -24 48 -54z"/>
<path d="M6112 8698 c-25 -25 -13 -47 43 -73 51 -25 94 -67 108 -106 3 -9 -5
-33 -19 -52 -28 -42 -31 -72 -7 -86 13 -7 25 -2 51 20 43 38 63 37 100 -5 63
-72 65 -197 6 -322 -52 -111 -280 -305 -398 -339 -58 -17 -162 -22 -214 -10
-26 5 -37 15 -48 41 -24 58 -65 43 -78 -28 -9 -48 -66 -100 -161 -145 -97 -45
-186 -59 -283 -43 -62 11 -75 11 -83 -1 -8 -13 -7 -20 7 -55 6 -13 -98 -87
-168 -119 -68 -31 -161 -55 -213 -55 -22 1 -65 10 -95 21 -86 32 -107 34 -114
11 -10 -30 3 -51 45 -72 31 -17 138 -39 186 -40 8 0 10 -19 7 -67 -5 -71 8
-115 36 -120 34 -6 44 14 45 96 2 89 9 104 63 122 93 30 217 104 283 170 11
11 44 18 104 23 140 10 269 63 361 148 l41 38 76 -12 c156 -24 300 25 442 151
146 129 190 176 222 237 64 120 79 241 43 338 -21 55 -77 117 -119 131 -11 3
-29 25 -39 49 -27 61 -75 111 -134 140 -58 29 -78 32 -96 14z"/>
<path d="M4890 6993 c-39 -17 -164 -23 -222 -10 -31 8 -38 6 -47 -11 -16 -30
-4 -49 37 -63 58 -20 158 -15 238 11 l70 23 48 -22 c58 -25 69 -26 86 -6 22
27 -2 60 -56 79 -59 20 -109 20 -154 -1z"/>
<path d="M4955 9179 c-53 -28 -101 -63 -151 -111 l-40 -39 -47 21 c-63 28
-131 25 -135 -7 -4 -26 26 -48 78 -57 64 -12 66 -16 35 -92 -15 -38 -33 -98
-40 -134 -7 -41 -16 -64 -24 -62 -7 1 -48 3 -90 3 -84 1 -144 -12 -204 -43
-35 -18 -41 -18 -62 -4 -14 10 -29 34 -37 63 -16 55 -48 71 -68 33 -16 -31 -5
-79 31 -133 l30 -46 -37 -71 c-28 -54 -41 -69 -53 -65 -30 13 -90 17 -126 11
-44 -9 -118 -74 -146 -128 -11 -21 -23 -38 -27 -38 -19 1 -119 79 -139 109
-48 71 -15 166 71 210 37 19 66 25 125 27 42 1 79 3 84 3 4 1 7 21 7 46 0 59
18 92 79 147 69 62 170 113 291 145 103 28 129 45 117 77 -5 12 -19 16 -59 16
-128 0 -311 -75 -403 -164 -52 -52 -105 -140 -105 -178 0 -15 -9 -18 -57 -18
-43 0 -74 -7 -119 -29 -57 -27 -64 -34 -93 -93 -21 -43 -33 -85 -38 -131 -5
-62 -8 -70 -32 -78 -100 -36 -130 -63 -109 -101 11 -23 33 -23 72 1 17 11 49
24 72 31 40 12 41 12 125 -47 l84 -59 2 -90 c3 -208 83 -358 227 -429 69 -34
110 -31 114 7 3 24 -3 29 -58 54 -136 61 -208 203 -198 393 8 148 76 245 178
251 79 5 90 1 90 -24 0 -48 43 -212 65 -251 13 -23 46 -62 74 -88 43 -40 54
-46 70 -37 37 19 34 32 -19 81 -60 58 -83 106 -100 209 -7 41 -17 79 -22 85
-14 15 -9 37 21 101 48 102 152 165 276 168 108 2 111 0 124 -105 11 -88 58
-254 88 -312 10 -20 20 -27 36 -25 31 4 28 44 -12 193 -58 214 -53 367 18 517
36 75 122 167 199 210 57 33 70 68 33 88 -25 13 -20 14 -66 -11z"/>
<path d="M3110 3378 c0 -2 -1 -320 -1 -708 -1 -699 -1 -705 20 -762 42 -109
145 -167 280 -155 37 3 84 12 106 20 l40 14 -4 109 c-2 60 -4 110 -5 111 -1 1
-19 -2 -40 -8 -46 -13 -101 3 -119 34 -9 17 -13 179 -15 685 l-3 662 -129 0
c-72 0 -130 -1 -130 -2z"/>
<path d="M3810 3230 l0 -130 140 0 140 0 0 130 0 130 -140 0 -140 0 0 -130z"/>
<path d="M8550 3230 l0 -130 140 0 140 0 0 130 0 130 -140 0 -140 0 0 -130z"/>
<path d="M7300 3213 c-34 -71 -107 -227 -162 -348 -55 -121 -133 -292 -173
-380 -199 -433 -314 -698 -308 -707 2 -5 65 -8 138 -8 159 0 137 -19 224 185
l61 140 398 3 398 2 67 -150 c37 -83 67 -155 67 -160 0 -11 7 -12 175 -10 66
1 121 3 124 5 7 7 -239 563 -559 1263 l-134 292 -127 0 -127 0 -62 -127z m251
-349 c34 -76 96 -222 140 -324 l78 -185 -286 -3 c-157 -1 -288 -1 -290 2 -2 2
24 64 58 137 34 74 92 204 129 289 79 181 102 231 107 227 2 -2 31 -66 64
-143z"/>
<path d="M1539 2803 c0 -290 -1 -640 -2 -778 l-2 -250 425 0 c372 0 434 2 500
18 196 46 314 147 355 303 53 203 -49 415 -227 473 -21 7 -38 16 -37 19 0 4
21 21 46 37 99 65 161 203 150 335 -15 181 -113 290 -312 346 -51 15 -122 18
-477 22 l-418 4 -1 -529z m827 250 c57 -30 92 -75 99 -126 13 -85 -29 -168
-104 -206 -63 -32 -137 -41 -346 -41 l-205 0 0 201 0 201 258 -4 c242 -3 259
-5 298 -25z m49 -626 c50 -23 103 -72 121 -114 20 -46 18 -127 -5 -171 -24
-47 -45 -66 -106 -94 -48 -22 -63 -23 -332 -26 l-283 -3 0 216 0 217 283 -4
c244 -3 287 -6 322 -21z"/>
<path d="M4714 2915 c-131 -28 -231 -102 -277 -203 -30 -66 -30 -188 0 -253
28 -62 93 -125 158 -155 30 -14 125 -43 212 -65 87 -22 177 -51 200 -65 69
-40 78 -108 22 -161 -37 -34 -77 -44 -165 -44 -106 0 -216 35 -308 96 -37 26
-69 45 -71 43 -1 -2 -20 -30 -43 -63 -23 -33 -51 -72 -62 -87 l-20 -26 37 -31
c104 -86 260 -140 428 -148 191 -9 305 25 401 121 77 78 99 134 92 245 -8 127
-67 214 -183 267 -28 13 -111 40 -185 59 -235 63 -270 82 -270 153 0 84 62
118 199 109 96 -6 181 -32 255 -78 27 -16 52 -26 56 -22 18 21 100 165 100
176 0 15 -87 68 -160 97 -117 47 -294 62 -416 35z"/>
<path d="M5865 2916 c-180 -41 -281 -147 -293 -305 -6 -93 17 -167 74 -230 56
-62 124 -92 318 -141 84 -21 167 -45 184 -54 42 -22 72 -63 72 -100 0 -74 -70
-116 -195 -116 -122 0 -230 35 -325 105 -26 19 -50 35 -52 35 -3 0 -27 -32
-54 -71 -27 -40 -56 -81 -63 -92 -14 -18 -12 -22 20 -48 139 -116 409 -177
610 -139 72 14 167 60 217 105 117 105 133 302 37 428 -59 77 -132 111 -362
167 -69 17 -138 37 -153 45 -74 38 -92 116 -39 166 37 35 79 43 178 36 84 -6
171 -33 240 -75 25 -15 49 -27 54 -27 4 0 30 38 58 85 36 61 48 89 41 100 -16
26 -115 80 -197 106 -99 32 -275 42 -370 20z"/>
<path d="M3820 2340 l0 -560 130 0 130 0 0 560 0 560 -130 0 -130 0 0 -560z"/>
<path d="M8664 2893 l-112 -4 -1 -554 -2 -555 136 0 135 0 -2 558 c-3 549 -3
557 -23 558 -11 0 -70 -1 -131 -3z"/>
</g>
</svg>
